# xmcd
#
# Track frame offsets:
#	150
#	16955
#	33241
#	51697
#	65875
#	85687
#	99398
#	111924
#	126294
#	142167
#	158739
#	174713
#
# Disc length: 2514 seconds
# Revision: 0
# Processed by: cddbd v1.5.2PL0 Copyright (c) Steve Scherf et al.
# Submitted via: dBpowerAMP V12.0
#
DISCID=ab09d00c
DTITLE=Graham Rodger - The Plains Of Nappa Merrie
DYEAR=2017
DGENRE=Country
TTITLE0=Doing My Best To Make It Home Tonight
TTITLE1=The Plains Of Nappa Merrie
TTITLE2=Our Love Will Always Live 
TTITLE3=The Roadway Of My Years
TTITLE4=When The Desert Flowers Bloom
TTITLE5=He Looked To Be Australian To Me 
TTITLE6=Addicted To My Cat D9
TTITLE7=The Pub With No Town
TTITLE8=Woman Of The Outback
TTITLE9=The Homesick Boomerang
TTITLE10=The Beauty That Is You
TTITLE11=No More Waltzing Matilda 
EXTD=
EXTT0=
EXTT1=
EXTT2=
EXTT3=
EXTT4=
EXTT5=
EXTT6=
EXTT7=
EXTT8=
EXTT9=
EXTT10=
EXTT11=
PLAYORDER=
